<?xml version="1.0" encoding="UTF-8"?>
<svg id="Layer_2" data-name="Layer 2" xmlns="http://www.w3.org/2000/svg" viewBox="0 0 446.66 626.62">
  <defs>
    <style>
      .cls-1 {
        fill: white;
      }
    </style>
  </defs>
  <g id="Layer_1-2" data-name="Layer 1">
    <g>
      <path class="cls-1" d="M317.94,174.53l-9.29-4.16-85.32-50.48-85.33,50.48-9.29,4.16,46.99-37.57,36.86-59.72V9.11c0-5.03,4.08-9.11,9.11-9.11,.56,0,1.12,.05,1.66,.16,.53-.1,1.08-.16,1.65-.16,5.03,0,9.11,4.08,9.11,9.11V77.23l36.86,59.72,46.99,37.57Z"/>
      <polygon class="cls-1" points="326.56 262.07 313.21 325.32 276.02 306.99 276.02 237.14 326.56 262.07"/>
      <path class="cls-1" d="M223.33,134.19L0,261.19H30.56l25.83-12.94,51.67,259.58,67.65,17.64,36.86,58.42v33.62c0,5.23,4.41,9.43,9.71,9.1,.35-.03,.71-.07,1.05-.14,.33,.06,.69,.1,1.04,.14,5.31,.33,9.71-3.87,9.71-9.1v-33.62l36.86-58.42,67.65-17.64,51.67-259.58,25.83,12.94h30.56l-223.33-127Zm-10.76,362.61l-41.94-10.93v-118.31l-28.58,7.56c-20.68,5.47-41.73-7.49-46.14-28.43l-.54-2.6,75.26-37.09v-69.85l-88.61,43.71-2.63-12.42c-3.56-16.88,4.72-34.06,20.15-41.79l113.03-56.64V496.8Zm154.7-228.37l-16.52,78.25c-4.41,20.94-25.46,33.9-46.14,28.43l-28.58-7.56v118.31l-41.94,10.93V169.99l113.03,56.64c15.43,7.73,23.71,24.91,20.15,41.79Z"/>
    </g>
  </g>
</svg>